# xmcd CD Database Entry
#
# Track frame offsets:
# 150
# 21180
# 46398
# 66193
# 90235
# 109785
# 127517
# 152812
# 173699
# 199010
# 221854
# 243896
# 263463
# 285896
# 304955
# 329658
#
# Disc length: 4671 seconds
#
# Revision: 1
# Processed by: cddbd v1.4PL0 Copyright (c) Steve Scherf et al.
# Submitted via: tcd 2.0b
#
DISCID=d2123d10
DTITLE=Multiple - Koorong Sampler CD
DYEAR=1900
DGENRE=
TTITLE0=Light Of The World - Matt Redmon
TTITLE1=How Deep The Father's Love - Stuart Townend
TTITLE2=Deeper and Deeper - Geoff Bullock
TTITLE3=Heart Of Worship - Matt Redmon
TTITLE4=When I Worship You - Noel Richards
TTITLE5=Lift Our Praise - Australia Worships
TTITLE6=Once Again - Matt Redmon
TTITLE7=Joy - Re Vive 99
TTITLE8=Show Your Glory - Hillsongs
TTITLE9=As The Deer - Maranatha
TTITLE10=Jesus Lover Of My Soul - Maranatha
TTITLE11=City Street's - Present History
TTITLE12=Passion For Jesus - Noel Richards
TTITLE13=Take Us To The River - Robin Mark
TTITLE14=Let Our Praise Be As Incense
TTITLE15=The King Of Love - Heritage Singers
EXTD=
EXTT0=
EXTT1=
EXTT2=
EXTT3=
EXTT4=
EXTT5=
EXTT6=
EXTT7=
EXTT8=
EXTT9=
EXTT10=
EXTT11=
EXTT12=
EXTT13=
EXTT14=
EXTT15=
PLAYORDER=
